ffmpeg started on 2016-12-07 at 21:26:06
Report written to "Output/x264/results/ffmpeg/crowd_run_2160p50slower2500k.log"
Command line:
Tools/ffmpeg/ffmpeg -benchmark -y -i Input/y4m/crowd_run_2160p50.y4m -c:v libx264 -preset slower -b:v 2500k -an Output/x264/encoded/crowd_run_2160p50slower2500k.mkv
ffmpeg version N-82227-gdb23fde Copyright (c) 2000-2016 the FFmpeg developers
  built with gcc 5.4.0 (Ubuntu 5.4.0-6ubuntu1~16.04.2) 20160609
  configuration: --prefix=/home/jaroslav/ffmpeg_build --pkg-config-flags=--static --extra-cflags=-I/home/jaroslav/ffmpeg_build/include --extra-ldflags=-L/home/jaroslav/ffmpeg_build/lib --bindir=/home/jaroslav/bin --enable-gpl --enable-libass --enable-libfdk-aac --enable-libfreetype --enable-libmp3lame --enable-libopus --enable-libtheora --enable-libvorbis --enable-libvpx --enable-libx264 --enable-libx265 --enable-nvenc --enable-libmfx --enable-libxvid --enable-libgsm --enable-libopencore-amrnb --enable-version3 --enable-nonfree
  libavutil      55. 35.100 / 55. 35.100
  libavcodec     57. 66.101 / 57. 66.101
  libavformat    57. 57.100 / 57. 57.100
  libavdevice    57.  2.100 / 57.  2.100
  libavfilter     6. 66.100 /  6. 66.100
  libswscale      4.  3.100 /  4.  3.100
  libswresample   2.  4.100 /  2.  4.100
  libpostproc    54.  2.100 / 54.  2.100
Input #0, yuv4mpegpipe, from 'Input/y4m/crowd_run_2160p50.y4m':
  Duration: 00:00:10.00, start: 0.000000, bitrate: 4976642 kb/s
    Stream #0:0: Video: rawvideo (I420 / 0x30323449), yuv420p(progressive), 3840x2160, SAR 1:1 DAR 16:9, 50 fps, 50 tbr, 50 tbn, 50 tbc
[libx264 @ 0x412e1c0] using SAR=1/1
[libx264 @ 0x412e1c0] DPB size (8 frames, 259200 mbs) > level limit (5 frames, 184320 mbs)
[libx264 @ 0x412e1c0] using cpu capabilities: MMX2 SSE2Fast SSSE3 SSE4.2 AVX FMA3 AVX2 LZCNT BMI2
[libx264 @ 0x412e1c0] profile High, level 5.2
[libx264 @ 0x412e1c0] 264 - core 148 - H.264/MPEG-4 AVC codec - Copyleft 2003-2016 - http://www.videolan.org/x264.html - options: cabac=1 ref=8 deblock=1:0:0 analyse=0x3:0x133 me=umh subme=9 psy=1 psy_rd=1.00:0.00 mixed_ref=1 me_range=16 chroma_me=1 trellis=2 8x8dct=1 cqm=0 deadzone=21,11 fast_pskip=1 chroma_qp_offset=-2 threads=6 lookahead_threads=1 sliced_threads=0 nr=0 decimate=1 interlaced=0 bluray_compat=0 constrained_intra=0 bframes=3 b_pyramid=2 b_adapt=2 b_bias=0 direct=3 weightb=1 open_gop=0 weightp=2 keyint=250 keyint_min=25 scenecut=40 intra_refresh=0 rc_lookahead=60 rc=abr mbtree=1 bitrate=2500 ratetol=1.0 qcomp=0.60 qpmin=0 qpmax=69 qpstep=4 ip_ratio=1.40 aq=1:1.00
Output #0, matroska, to 'Output/x264/encoded/crowd_run_2160p50slower2500k.mkv':
  Metadata:
    encoder         : Lavf57.57.100
    Stream #0:0: Video: h264 (libx264) (H264 / 0x34363248), yuv420p, 3840x2160 [SAR 1:1 DAR 16:9], q=-1--1, 2500 kb/s, 50 fps, 1k tbn, 50 tbc
    Metadata:
      encoder         : Lavc57.66.101 libx264
    Side data:
      cpb: bitrate max/min/avg: 0/0/2500000 buffer size: 0 vbv_delay: -1
Stream mapping:
  Stream #0:0 -> #0:0 (rawvideo (native) -> h264 (libx264))
Press [q] to stop, [?] for help
frame=   19 fps=0.0 q=0.0 size=       0kB time=00:00:00.00 bitrate=N/A speed=   0x    frame=   34 fps= 32 q=0.0 size=       0kB time=00:00:00.00 bitrate=N/A speed=   0x    frame=   47 fps= 29 q=0.0 size=       0kB time=00:00:00.00 bitrate=N/A speed=   0x    frame=   58 fps= 27 q=0.0 size=       0kB time=00:00:00.00 bitrate=N/A speed=   0x    frame=   67 fps= 12 q=0.0 size=       0kB time=00:00:00.00 bitrate=N/A speed=   0x    frame=   73 fps= 12 q=55.0 size=       1kB time=00:00:00.00 bitrate=5888.0kbits/s speed=0.000159x    frame=   76 fps= 11 q=63.0 size=       1kB time=00:00:00.06 bitrate=  96.5kbits/s speed=0.00858x    frame=   80 fps= 10 q=61.0 size=       1kB time=00:00:00.14 bitrate=  41.8kbits/s speed=0.0184x    frame=   83 fps=9.4 q=62.0 size=       1kB time=00:00:00.20 bitrate=  29.3kbits/s speed=0.0228x    frame=   87 fps=9.3 q=62.0 size=       1kB time=00:00:00.28 bitrate=  21.0kbits/s speed=0.03x    frame=   90 fps=8.7 q=62.0 size=       1kB time=00:00:00.34 bitrate=  17.3kbits/s speed=0.0329x    frame=   95 fps=8.7 q=62.0 size=       1kB time=00:00:00.44 bitrate=  13.4kbits/s speed=0.0404x    frame=   97 fps=8.2 q=61.0 size=       1kB time=00:00:00.48 bitrate=  12.2kbits/s speed=0.0406x    frame=  100 fps=8.0 q=61.0 size=       1kB time=00:00:00.54 bitrate=  10.9kbits/s speed=0.0431x    frame=  104 fps=7.9 q=61.0 size=       1kB time=00:00:00.62 bitrate=   9.5kbits/s speed=0.047x    frame=  106 fps=7.7 q=61.0 size=       1kB time=00:00:00.66 bitrate=   8.9kbits/s speed=0.0481x    frame=  109 fps=7.5 q=61.0 size=       1kB time=00:00:00.72 bitrate=   8.2kbits/s speed=0.0498x    frame=  113 fps=7.4 q=61.0 size=       1kB time=00:00:00.80 bitrate=   7.4kbits/s speed=0.0521x    frame=  119 fps=7.2 q=61.0 size=       1kB time=00:00:00.92 bitrate=   6.4kbits/s speed=0.0558x    frame=  121 fps=7.1 q=61.0 size=       1kB time=00:00:00.96 bitrate=   6.1kbits/s speed=0.0563x    frame=  125 fps=7.1 q=61.0 size=       1kB time=00:00:01.04 bitrate=   5.7kbits/s speed=0.0592x    frame=  126 fps=7.0 q=61.0 size=       1kB time=00:00:01.06 bitrate=   5.5kbits/s speed=0.0586x    frame=  128 fps=6.9 q=61.0 size=       1kB time=00:00:01.10 bitrate=   5.3kbits/s speed=0.059x    frame=  132 fps=6.9 q=61.0 size=       1kB time=00:00:01.18 bitrate=   5.0kbits/s speed=0.0614x    frame=  134 fps=6.7 q=61.0 size=       1kB time=00:00:01.22 bitrate=   4.8kbits/s speed=0.0607x    frame=  139 fps=6.6 q=61.0 size=       1kB time=00:00:01.32 bitrate=   4.5kbits/s speed=0.0629x    frame=  142 fps=6.5 q=60.0 size=       1kB time=00:00:01.38 bitrate=   4.3kbits/s speed=0.0632x    frame=  146 fps=6.5 q=60.0 size=       1kB time=00:00:01.46 bitrate=   4.0kbits/s speed=0.0649x    frame=  149 fps=6.5 q=60.0 size=       1kB time=00:00:01.52 bitrate=   3.9kbits/s speed=0.066x    frame=  150 fps=6.3 q=60.0 size=       1kB time=00:00:01.54 bitrate=   3.8kbits/s speed=0.0649x    frame=  154 fps=6.3 q=60.0 size=       1kB time=00:00:01.62 bitrate=   3.6kbits/s speed=0.0662x    frame=  157 fps=6.2 q=60.0 size=       1kB time=00:00:01.68 bitrate=   3.5kbits/s speed=0.0664x    frame=  160 fps=6.1 q=60.0 size=       1kB time=00:00:01.74 bitrate=   3.4kbits/s speed=0.0669x    frame=  163 fps=6.1 q=60.0 size=       1kB time=00:00:01.80 bitrate=   3.3kbits/s speed=0.0674x    frame=  166 fps=6.0 q=60.0 size=       1kB time=00:00:01.86 bitrate=   3.2kbits/s speed=0.0677x    frame=  168 fps=6.0 q=60.0 size=       1kB time=00:00:01.90 bitrate=   3.1kbits/s speed=0.0678x    frame=  171 fps=6.0 q=60.0 size=       1kB time=00:00:01.96 bitrate=   3.0kbits/s speed=0.0686x    frame=  174 fps=5.9 q=60.0 size=       1kB time=00:00:02.02 bitrate=   2.9kbits/s speed=0.069x    frame=  178 fps=5.8 q=60.0 size=       1kB time=00:00:02.10 bitrate=   2.8kbits/s speed=0.0687x    frame=  184 fps=5.8 q=60.0 size=       1kB time=00:00:02.22 bitrate=   2.7kbits/s speed=0.0698x    frame=  188 fps=5.8 q=59.0 size=       1kB time=00:00:02.30 bitrate=   2.6kbits/s speed=0.0708x    frame=  191 fps=5.7 q=59.0 size=       1kB time=00:00:02.36 bitrate=   2.5kbits/s speed=0.071x    frame=  193 fps=5.7 q=59.0 size=       1kB time=00:00:02.40 bitrate=   2.5kbits/s speed=0.071x    frame=  196 fps=5.7 q=59.0 size=       1kB time=00:00:02.46 bitrate=   2.4kbits/s speed=0.0714x    frame=  199 fps=5.7 q=59.0 size=       1kB time=00:00:02.52 bitrate=   2.3kbits/s speed=0.072x    frame=  201 fps=5.6 q=59.0 size=       1kB time=00:00:02.56 bitrate=   2.3kbits/s speed=0.0717x    frame=  204 fps=5.6 q=59.0 size=       1kB time=00:00:02.62 bitrate=   2.2kbits/s speed=0.0721x    frame=  206 fps=5.6 q=59.0 size=       1kB time=00:00:02.66 bitrate=   2.2kbits/s speed=0.0719x    frame=  209 fps=5.6 q=59.0 size=       1kB time=00:00:02.72 bitrate=   2.2kbits/s speed=0.0725x    frame=  211 fps=5.5 q=59.0 size=       1kB time=00:00:02.76 bitrate=   2.1kbits/s speed=0.0721x    frame=  216 fps=5.6 q=59.0 size=       1kB time=00:00:02.86 bitrate=   2.1kbits/s speed=0.0736x    frame=  217 fps=5.5 q=59.0 size=       1kB time=00:00:02.88 bitrate=   2.0kbits/s speed=0.0728x    frame=  219 fps=5.5 q=59.0 size=       1kB time=00:00:02.92 bitrate=   2.0kbits/s speed=0.0728x    frame=  222 fps=5.5 q=59.0 size=       1kB time=00:00:02.98 bitrate=   2.0kbits/s speed=0.0732x    frame=  224 fps=5.4 q=59.0 size=       1kB time=00:00:03.02 bitrate=   1.9kbits/s speed=0.073x    frame=  227 fps=5.4 q=59.0 size=       1kB time=00:00:03.08 bitrate=   1.9kbits/s speed=0.0736x    frame=  229 fps=5.4 q=59.0 size=       1kB time=00:00:03.12 bitrate=   1.9kbits/s speed=0.0732x    frame=  233 fps=5.4 q=59.0 size=       1kB time=00:00:03.20 bitrate=   1.8kbits/s speed=0.0736x    frame=  236 fps=5.3 q=59.0 size=       1kB time=00:00:03.26 bitrate=   1.8kbits/s speed=0.0735x    frame=  240 fps=5.3 q=59.0 size=       1kB time=00:00:03.34 bitrate=   1.8kbits/s speed=0.0744x    frame=  242 fps=5.3 q=59.0 size=       1kB time=00:00:03.38 bitrate=   1.7kbits/s speed=0.0743x    frame=  244 fps=5.3 q=59.0 size=       1kB time=00:00:03.42 bitrate=   1.7kbits/s speed=0.0741x    frame=  247 fps=5.3 q=59.0 size=       1kB time=00:00:03.48 bitrate=   1.7kbits/s speed=0.0746x    frame=  249 fps=5.2 q=59.0 size=       1kB time=00:00:03.52 bitrate=   1.7kbits/s speed=0.0742x    frame=  252 fps=5.2 q=59.0 size=       1kB time=00:00:03.58 bitrate=   1.6kbits/s speed=0.0745x    frame=  255 fps=5.2 q=59.0 size=       1kB time=00:00:03.64 bitrate=   1.6kbits/s speed=0.0746x    frame=  258 fps=5.2 q=59.0 size=       1kB time=00:00:03.70 bitrate=   1.6kbits/s speed=0.0748x    frame=  261 fps=5.2 q=59.0 size=       1kB time=00:00:03.76 bitrate=   1.6kbits/s speed=0.0747x    frame=  264 fps=5.2 q=59.0 size=       1kB time=00:00:03.82 bitrate=   1.5kbits/s speed=0.0749x    frame=  267 fps=5.2 q=59.0 size=       1kB time=00:00:03.88 bitrate=   1.5kbits/s speed=0.0749x    frame=  270 fps=5.1 q=59.0 size=       1kB time=00:00:03.94 bitrate=   1.5kbits/s speed=0.0748x    frame=  273 fps=5.1 q=59.0 size=       1kB time=00:00:04.00 bitrate=   1.5kbits/s speed=0.0752x    frame=  276 fps=5.1 q=59.0 size=       1kB time=00:00:04.06 bitrate=   1.4kbits/s speed=0.0756x    frame=  277 fps=5.1 q=59.0 size=       1kB time=00:00:04.08 bitrate=   1.4kbits/s speed=0.075x    frame=  281 fps=5.1 q=59.0 size=       1kB time=00:00:04.16 bitrate=   1.4kbits/s speed=0.0757x    frame=  283 fps=5.1 q=59.0 size=       1kB time=00:00:04.20 bitrate=   1.4kbits/s speed=0.0754x    frame=  285 fps=5.1 q=59.0 size=       1kB time=00:00:04.24 bitrate=   1.4kbits/s speed=0.0753x    frame=  287 fps=5.0 q=59.0 size=       1kB time=00:00:04.28 bitrate=   1.4kbits/s speed=0.0753x    frame=  290 fps=5.1 q=59.0 size=       1kB time=00:00:04.34 bitrate=   1.4kbits/s speed=0.0756x    frame=  293 fps=5.0 q=59.0 size=       1kB time=00:00:04.40 bitrate=   1.3kbits/s speed=0.0754x    frame=  297 fps=5.0 q=59.0 size=       1kB time=00:00:04.48 bitrate=   1.3kbits/s speed=0.0761x    frame=  299 fps=5.0 q=59.0 size=       1kB time=00:00:04.52 bitrate=   1.3kbits/s speed=0.0759x    frame=  300 fps=5.0 q=59.0 size=       1kB time=00:00:04.54 bitrate=   1.3kbits/s speed=0.0756x    frame=  302 fps=5.0 q=59.0 size=       1kB time=00:00:04.58 bitrate=   1.3kbits/s speed=0.0756x    frame=  305 fps=5.0 q=59.0 size=       1kB time=00:00:04.64 bitrate=   1.3kbits/s speed=0.0757x    frame=  308 fps=4.9 q=59.0 size=       1kB time=00:00:04.70 bitrate=   1.3kbits/s speed=0.0755x    frame=  310 fps=4.9 q=59.0 size=       1kB time=00:00:04.74 bitrate=   1.2kbits/s speed=0.0755x    frame=  313 fps=4.9 q=59.0 size=       1kB time=00:00:04.80 bitrate=   1.2kbits/s speed=0.0758x    frame=  316 fps=4.9 q=56.0 size=       1kB time=00:00:04.86 bitrate=   1.2kbits/s speed=0.0758x    frame=  318 fps=4.9 q=59.0 size=       1kB time=00:00:04.90 bitrate=   1.2kbits/s speed=0.0758x    frame=  325 fps=5.0 q=59.0 size=    1548kB time=00:00:05.04 bitrate=2515.1kbits/s speed=0.0773x    frame=  327 fps=5.0 q=59.0 size=    1548kB time=00:00:05.08 bitrate=2495.3kbits/s speed=0.0772x    frame=  330 fps=5.0 q=59.0 size=    1548kB time=00:00:05.14 bitrate=2466.2kbits/s speed=0.0775x    frame=  333 fps=5.0 q=59.0 size=    1548kB time=00:00:05.20 bitrate=2437.7kbits/s speed=0.0775x    frame=  335 fps=5.0 q=59.0 size=    1548kB time=00:00:05.24 bitrate=2419.1kbits/s speed=0.0775x    frame=  339 fps=4.9 q=59.0 size=    1548kB time=00:00:05.32 bitrate=2382.7kbits/s speed=0.0775x    frame=  341 fps=4.9 q=59.0 size=    1548kB time=00:00:05.36 bitrate=2364.9kbits/s speed=0.0774x    frame=  344 fps=4.9 q=59.0 size=    1548kB time=00:00:05.42 bitrate=2338.8kbits/s speed=0.0775x    frame=  345 fps=4.9 q=59.0 size=    1548kB time=00:00:05.44 bitrate=2330.2kbits/s speed=0.0773x    frame=  349 fps=4.9 q=59.0 size=    1548kB time=00:00:05.52 bitrate=2296.4kbits/s speed=0.0775x    frame=  351 fps=4.9 q=59.0 size=    1548kB time=00:00:05.56 bitrate=2279.9kbits/s speed=0.0775x    frame=  353 fps=4.9 q=59.0 size=    1548kB time=00:00:05.60 bitrate=2263.6kbits/s speed=0.0773x    frame=  357 fps=4.9 q=59.0 size=    1548kB time=00:00:05.68 bitrate=2231.7kbits/s speed=0.0774x    frame=  360 fps=4.9 q=59.0 size=    1548kB time=00:00:05.74 bitrate=2208.4kbits/s speed=0.0775x    frame=  361 fps=4.8 q=59.0 size=    1548kB time=00:00:05.76 bitrate=2200.7kbits/s speed=0.0772x    frame=  365 fps=4.9 q=59.0 size=    1548kB time=00:00:05.84 bitrate=2170.6kbits/s speed=0.0777x    frame=  367 fps=4.8 q=59.0 size=    1548kB time=00:00:05.88 bitrate=2155.8kbits/s speed=0.0774x    frame=  369 fps=4.8 q=59.0 size=    1548kB time=00:00:05.92 bitrate=2141.3kbits/s speed=0.0772x    frame=  373 fps=4.8 q=59.0 size=    1548kB time=00:00:06.00 bitrate=2112.7kbits/s speed=0.0778x    frame=  375 fps=4.8 q=59.0 size=    1548kB time=00:00:06.04 bitrate=2098.7kbits/s speed=0.0775x    frame=  377 fps=4.8 q=59.0 size=    1548kB time=00:00:06.08 bitrate=2084.9kbits/s speed=0.0773x    frame=  380 fps=4.8 q=59.0 size=    1548kB time=00:00:06.14 bitrate=2064.6kbits/s speed=0.0773x    frame=  383 fps=4.8 q=59.0 size=    1548kB time=00:00:06.20 bitrate=2044.6kbits/s speed=0.0775x    frame=  386 fps=4.8 q=59.0 size=    1548kB time=00:00:06.26 bitrate=2025.0kbits/s speed=0.0772x    frame=  389 fps=4.8 q=59.0 size=    1548kB time=00:00:06.32 bitrate=2005.8kbits/s speed=0.0774x    frame=  391 fps=4.8 q=59.0 size=    1548kB time=00:00:06.36 bitrate=1993.2kbits/s speed=0.0774x    frame=  394 fps=4.7 q=59.0 size=    1548kB time=00:00:06.42 bitrate=1974.5kbits/s speed=0.0771x    frame=  397 fps=4.7 q=59.0 size=    1548kB time=00:00:06.48 bitrate=1956.3kbits/s speed=0.0773x    frame=  399 fps=4.7 q=59.0 size=    1548kB time=00:00:06.52 bitrate=1944.3kbits/s speed=0.0773x    frame=  402 fps=4.7 q=59.0 size=    1548kB time=00:00:06.58 bitrate=1926.5kbits/s speed=0.0773x    frame=  405 fps=4.7 q=59.0 size=    1548kB time=00:00:06.64 bitrate=1909.1kbits/s speed=0.0775x    frame=  406 fps=4.7 q=59.0 size=    1548kB time=00:00:06.66 bitrate=1903.4kbits/s speed=0.0771x    frame=  409 fps=4.7 q=59.0 size=    1548kB time=00:00:06.72 bitrate=1886.4kbits/s speed=0.0774x    frame=  412 fps=4.7 q=59.0 size=    1548kB time=00:00:06.78 bitrate=1869.7kbits/s speed=0.0773x    frame=  415 fps=4.7 q=59.0 size=    1548kB time=00:00:06.84 bitrate=1853.3kbits/s speed=0.0771x    frame=  418 fps=4.7 q=59.0 size=    1548kB time=00:00:06.90 bitrate=1837.2kbits/s speed=0.0773x    frame=  420 fps=4.7 q=59.0 size=    1548kB time=00:00:06.94 bitrate=1826.6kbits/s speed=0.0773x    frame=  423 fps=4.7 q=59.0 size=    1548kB time=00:00:07.00 bitrate=1811.0kbits/s speed=0.0772x    frame=  425 fps=4.7 q=59.0 size=    1548kB time=00:00:07.04 bitrate=1800.7kbits/s speed=0.0771x    frame=  429 fps=4.7 q=59.0 size=    1548kB time=00:00:07.12 bitrate=1780.4kbits/s speed=0.0775x    frame=  431 fps=4.7 q=59.0 size=    1548kB time=00:00:07.16 bitrate=1770.5kbits/s speed=0.0773x    frame=  434 fps=4.7 q=59.0 size=    1548kB time=00:00:07.22 bitrate=1755.8kbits/s speed=0.0774x    frame=  435 fps=4.6 q=59.0 size=    1548kB time=00:00:07.24 bitrate=1750.9kbits/s speed=0.0771x    frame=  437 fps=4.6 q=59.0 size=    1548kB time=00:00:07.28 bitrate=1741.3kbits/s speed=0.0771x    frame=  441 fps=4.6 q=59.0 size=    1548kB time=00:00:07.36 bitrate=1722.4kbits/s speed=0.0774x    frame=  442 fps=4.6 q=59.0 size=    1548kB time=00:00:07.38 bitrate=1717.7kbits/s speed=0.077x    frame=  446 fps=4.6 q=59.0 size=    1548kB time=00:00:07.46 bitrate=1699.3kbits/s speed=0.0773x    frame=  448 fps=4.6 q=59.0 size=    1548kB time=00:00:07.50 bitrate=1690.2kbits/s speed=0.0773x    frame=  450 fps=4.6 q=59.0 size=    1548kB time=00:00:07.54 bitrate=1681.3kbits/s speed=0.0769x    frame=  454 fps=4.6 q=59.0 size=    1548kB time=00:00:07.62 bitrate=1663.6kbits/s speed=0.0771x    frame=  456 fps=4.6 q=59.0 size=    1548kB time=00:00:07.66 bitrate=1654.9kbits/s speed=0.0771x    frame=  458 fps=4.6 q=59.0 size=    1548kB time=00:00:07.70 bitrate=1646.3kbits/s speed=0.0771x    frame=  459 fps=4.6 q=59.0 size=    1548kB time=00:00:07.72 bitrate=1642.1kbits/s speed=0.0768x    frame=  463 fps=4.6 q=59.0 size=    1548kB time=00:00:07.80 bitrate=1625.2kbits/s speed=0.077x    frame=  465 fps=4.6 q=59.0 size=    1548kB time=00:00:07.84 bitrate=1616.9kbits/s speed=0.0769x    frame=  467 fps=4.5 q=59.0 size=    1548kB time=00:00:07.88 bitrate=1608.7kbits/s speed=0.0768x    frame=  470 fps=4.5 q=59.0 size=    1548kB time=00:00:07.94 bitrate=1596.6kbits/s speed=0.0767x    frame=  472 fps=4.5 q=59.0 size=    1548kB time=00:00:07.98 bitrate=1588.6kbits/s speed=0.0767x    frame=  475 fps=4.5 q=59.0 size=    1548kB time=00:00:08.04 bitrate=1576.7kbits/s speed=0.0766x    frame=  478 fps=4.5 q=59.0 size=    1548kB time=00:00:08.10 bitrate=1565.1kbits/s speed=0.0767x    frame=  479 fps=4.5 q=59.0 size=    1548kB time=00:00:08.12 bitrate=1561.2kbits/s speed=0.0764x    frame=  483 fps=4.5 q=59.0 size=    1548kB time=00:00:08.20 bitrate=1546.0kbits/s speed=0.0767x    frame=  485 fps=4.5 q=59.0 size=    1548kB time=00:00:08.24 bitrate=1538.5kbits/s speed=0.0764x    frame=  490 fps=4.5 q=59.0 size=    1548kB time=00:00:08.34 bitrate=1520.0kbits/s speed=0.0767x    frame=  492 fps=4.5 q=59.0 size=    1548kB time=00:00:08.38 bitrate=1512.8kbits/s speed=0.0764x    frame=  493 fps=4.5 q=59.0 size=    1548kB time=00:00:08.40 bitrate=1509.2kbits/s speed=0.0762x    frame=  497 fps=4.5 q=59.0 size=    1548kB time=00:00:08.48 bitrate=1494.9kbits/s speed=0.0764x    frame=  499 fps=4.5 q=59.0 size=    1548kB time=00:00:08.52 bitrate=1487.9kbits/s speed=0.0764x    frame=  500 fps=4.4 q=59.0 size=    1548kB time=00:00:08.54 bitrate=1484.4kbits/s speed=0.0758x    frame=  500 fps=3.9 q=-1.0 Lsize=    3185kB time=00:00:09.94 bitrate=2624.4kbits/s speed=0.0766x    
video:3180kB audio:0kB subtitle:0kB other streams:0kB global headers:0kB muxing overhead: 0.134552%
bench: utime=489.720s
bench: maxrss=2530644kB
[libx264 @ 0x412e1c0] frame I:2     Avg QP:46.50  size: 87661
[libx264 @ 0x412e1c0] frame P:134   Avg QP:50.92  size: 15991
[libx264 @ 0x412e1c0] frame B:364   Avg QP:50.95  size:  2577
[libx264 @ 0x412e1c0] consecutive B-frames:  0.4%  2.8% 14.4% 82.4%
[libx264 @ 0x412e1c0] mb I  I16..4: 44.5% 54.3%  1.3%
[libx264 @ 0x412e1c0] mb P  I16..4: 16.1%  7.9%  0.0%  P16..4: 12.4%  0.1%  1.3%  0.0%  0.0%    skip:62.2%
[libx264 @ 0x412e1c0] mb B  I16..4:  0.0%  0.0%  0.0%  B16..8:  9.0%  0.0%  0.0%  direct: 0.0%  skip:90.9%  L0:31.2% L1:68.8% BI: 0.0%
[libx264 @ 0x412e1c0] final ratefactor: 51.33
[libx264 @ 0x412e1c0] 8x8 transform intra:34.2% inter:96.2%
[libx264 @ 0x412e1c0] direct mvs  spatial:98.9% temporal:1.1%
[libx264 @ 0x412e1c0] coded y,uvDC,uvAC intra: 2.7% 31.6% 0.5% inter: 0.0% 0.8% 0.0%
[libx264 @ 0x412e1c0] i16 v,h,dc,p: 76% 17%  3%  4%
[libx264 @ 0x412e1c0] i8 v,h,dc,ddl,ddr,vr,hd,vl,hu:  3%  1% 88%  2%  2%  1%  1%  1%  1%
[libx264 @ 0x412e1c0] i4 v,h,dc,ddl,ddr,vr,hd,vl,hu:  7%  3%  3% 14% 15% 15% 14% 11% 18%
[libx264 @ 0x412e1c0] i8c dc,h,v,p: 90%  4%  5%  0%
[libx264 @ 0x412e1c0] Weighted P-Frames: Y:0.7% UV:0.0%
[libx264 @ 0x412e1c0] ref P L0: 56.5%  0.6% 16.2%  7.2%  5.1%  5.8%  5.1%  3.3%  0.0%
[libx264 @ 0x412e1c0] ref B L0: 89.0%  3.3%  3.0%  1.3%  1.4%  1.0%  1.0%
[libx264 @ 0x412e1c0] ref B L1: 99.1%  0.9%
[libx264 @ 0x412e1c0] kb/s:2604.84
